<svg id="TEXT" xmlns="http://www.w3.org/2000/svg" width="200.011" height="138.509" viewBox="0 0 1535 1063">
  <defs>
    <style>
      .cls-1 {
        fill: #222;
        stroke: #a01616;
        stroke-linejoin: round;
        stroke-opacity: 0.79;
        stroke-width: 2px;
      }

      .cls-1, .cls-2 {
        fill-rule: evenodd;
      }

      .cls-2 {
        fill: #a01616;
      }

      .cls-3 {
        fill: none;
        stroke: #000;
        stroke-linecap: round;
        stroke-width: 15.6px;
        stroke-dasharray: 0.001 31.2;
      }
    </style>
  </defs>
  <path id="ARQVAGAS" class="cls-1" d="M495.815,710.421H517.9l-25.649-68.258H469.246L443.59,710.421h21.537l3.326-11.267H492.4Zm-22.78-26.027,7.455-24.538,7.535,24.538h-14.99Zm82.573,26.027v-27.7h1.862a8.854,8.854,0,0,1,5.168,1.584q1.677,1.21,3.818,5.261l11.275,20.859h23.833l-10.215-19.779a26.847,26.847,0,0,0-2.954-4.24,14.281,14.281,0,0,0-8.864-6.106,25.472,25.472,0,0,0,7.407-2.7,19.975,19.975,0,0,0,5.919-27.541,15.908,15.908,0,0,0-8.335-6.216q-5.168-1.677-14.946-1.676H534.422v68.258h21.186Zm0-54.476h9.265q5.773,0,7.869,1.769a6.913,6.913,0,0,1,.769,9.033,5.579,5.579,0,0,1-3.423,2.142,31.762,31.762,0,0,1-5.587.931h-8.893V655.945Zm128.407,20.3q0-16.993-9.243-26.12T648.535,641q-16.669,0-25.958,9.336t-9.289,26.191q0,17.367,10.616,26.959,8.985,8.1,24.538,8.1,10.521,0,17.507-3.026A74.887,74.887,0,0,0,672,713.006a68.54,68.54,0,0,0,8.753,5.1l5.867-11.827q-3.073-1.349-4.889-2.374-1.212-.7-5.168-3.446,7.449-9.079,7.45-24.212h0ZM658.08,688.119A56.035,56.035,0,0,0,652,684.207a18,18,0,0,0-4.354-1.257l-3.306,7.59a26.113,26.113,0,0,1,8.381,4.842,18.884,18.884,0,0,1-4.051.419q-6.659,0-10.476-4.516t-3.818-15.691q0-9.593,3.911-14.109a12.853,12.853,0,0,1,10.2-4.516q6.751,0,10.593,4.423t3.841,14.76q0,8.986-2.514,13.5-1.257-.79-2.328-1.536h0Zm61.808,22.3H742.75L768.1,642.163H746.688l-15.167,49.122-15.363-49.122H694.109Zm104.566,0h22.088l-25.65-68.258H797.885L772.23,710.421h21.536l3.327-11.267h23.946Zm-22.78-26.027,7.456-24.538,7.534,24.538h-14.99Zm107.809,1.3v6.426a36.439,36.439,0,0,1-7.357,3.492,22.082,22.082,0,0,1-6.751,1.024q-7.45,0-11.617-4.749t-4.167-15.831q0-10.429,4.12-15.249a13.813,13.813,0,0,1,11.059-4.819,13.306,13.306,0,0,1,7.659,2.049,11.018,11.018,0,0,1,4.26,5.913l20.348-3.632a28.248,28.248,0,0,0-5.564-10.918,21.977,21.977,0,0,0-9.313-6.356Q906.55,641,895.235,641q-11.733,0-18.671,3.306a29.866,29.866,0,0,0-13.5,12.549,39.272,39.272,0,0,0-4.609,19.439,40.551,40.551,0,0,0,4.214,18.811,28.359,28.359,0,0,0,11.873,12.339q7.659,4.145,19.812,4.143a56.193,56.193,0,0,0,17.064-2.3q7.194-2.305,16.553-8.684V671.5H895.375v14.2h14.108Zm85.926,24.724H1017.5l-25.653-68.258H968.84l-25.656,68.258H964.72l3.327-11.267h23.947Zm-22.781-26.027,7.456-24.538,7.534,24.538h-14.99Zm65.022,20.487q6.7,6.705,24.12,6.7,9.915,0,16.43-2.863a22.694,22.694,0,0,0,10.15-8.4,21.651,21.651,0,0,0,3.63-12.106,19.143,19.143,0,0,0-2.72-10.1,20.789,20.789,0,0,0-8.71-7.566q-5.97-3.049-19.81-6.03-5.58-1.164-7.08-2.514a3.806,3.806,0,0,1-1.53-2.934,4.781,4.781,0,0,1,1.86-3.794,8.454,8.454,0,0,1,5.54-1.56,10.7,10.7,0,0,1,7.01,2.095q2.535,2.1,3.33,6.705l19.88-1.164q-1.3-10.617-8.17-15.482T1061.63,641q-10.665,0-16.79,2.678a20.218,20.218,0,0,0-9.17,7.356,17.926,17.926,0,0,0-3.05,9.941,16.676,16.676,0,0,0,5.96,13.177q5.91,5.169,19.79,8.288,8.475,1.863,10.8,3.958a6.275,6.275,0,0,1,2.33,4.749,6.351,6.351,0,0,1-2.45,4.912q-2.445,2.12-6.96,2.119-6.045,0-9.31-4.144a15.312,15.312,0,0,1-2.65-7.45l-20.07,1.257A26.447,26.447,0,0,0,1037.65,704.881Z"/>
  <path id="SPV" class="cls-2" d="M551.251,450.111c-38.45-7.616-55.136-16.323-55.136-35.184,0-21.764,18.864-34.46,52.233-34.46,30.471,0,50.056,13.42,62.752,25.753l16.686-31.557c-30.106-27.932-68.556-29.019-78.71-29.019-56.951,0-87.784,31.194-87.784,70.734,0,32.645,19.227,56.947,87.056,68.556,33.373,5.8,55.5,17.774,55.5,37.362,0,23.215-19.952,38.086-56.587,38.086-28.656,0-56.587-13.42-76.9-35.911l-17.414,31.194c3.627,4.354,34.824,39.537,93.589,39.537,56.947,0,92.131-31.921,92.131-74.36C638.665,479.857,609.286,461.356,551.251,450.111ZM751.683,348.549H676.235v34.82h84.518c25.393,0,48.968,13.421,48.968,45.342,0,31.557-21.4,44.617-46.79,44.617h-86.7V592.3h34.82V508.149h51.51c51.506,0,81.979-35.911,81.979-81.613C844.544,380.467,815.162,348.549,751.683,348.549ZM972.19,516.128L899.644,348.549H861.921L972.19,598.108l18.016-40.77-17.944-41.37Zm72.55-167.579L982.65,491.971l18.11,41.482,81.7-184.9h-37.72Z"/>
  <circle id="CIRCLE" class="cls-3" cx="767.5" cy="531.5" r="416.5"/>
</svg>
