<svg xmlns="http://www.w3.org/2000/svg" width="200.011" height="138.509" viewBox="0 0 1535 1063">
  <defs>
    <style>
      .cls-1 {
        fill: #222;
      }

      .cls-1, .cls-2 {
        fill-rule: evenodd;
      }

      .cls-2 {
        fill: #a01616;
      }

      .cls-3 {
        fill: none;
        stroke: #000;
        stroke-width: 15.6px;
        stroke-dasharray: 62.4 31.2;
      }
    </style>
  </defs>
  <path id="ARQVAGAS" class="cls-1" d="M561.2,621.135H549.741l-20.91,53.686h11.5l4.431-12.194h21.46l4.687,12.194H582.7Zm-13.111,32.446,7.251-19.922,7.4,19.922H548.093Zm58.733,21.24V652.409h2.2a17.856,17.856,0,0,1,5.456.605,8.311,8.311,0,0,1,3.259,2.233,75.7,75.7,0,0,1,5.713,7.892l7.837,11.682h12.964L637.7,664.348a61.188,61.188,0,0,0-6.171-8.716,25.3,25.3,0,0,0-5.8-4.5q7.067-1.026,10.62-4.963a14.331,14.331,0,0,0,3.552-9.979,15.462,15.462,0,0,0-2.344-8.459,12.337,12.337,0,0,0-6.243-5.146q-3.9-1.446-12.507-1.446H595.986v53.686h10.84Zm0-44.6h8.46q6.591,0,7.91.183a6.638,6.638,0,0,1,4.083,2.106,6.44,6.44,0,0,1,1.447,4.376,6.985,6.985,0,0,1-1.1,4.028,5.839,5.839,0,0,1-3.039,2.271q-1.942.659-9.742,0.659h-8.02V630.217Zm98.687,29.993a35.333,35.333,0,0,0,1.941-12.232q0-13.146-7-20.453t-18.933-7.306q-12.049,0-19.08,7.306t-7.031,20.453q0,13.184,7.013,20.471t19.391,7.288A28.838,28.838,0,0,0,693.5,673.43q6.7,4.5,7.214,4.761a24.807,24.807,0,0,0,4.8,2.014l3.992-7.654a35.415,35.415,0,0,1-8.68-4.541,25.443,25.443,0,0,0,4.688-7.8h0ZM681.892,656.4l-3.039,6.189a31.389,31.389,0,0,1,6.7,3.369,12.707,12.707,0,0,1-4.431.769,13.292,13.292,0,0,1-10.418-4.669q-4.121-4.669-4.12-14.081,0-9.264,4.12-13.879a14.825,14.825,0,0,1,21.478-.019q4.1,4.6,4.1,13.9a27.854,27.854,0,0,1-1.043,7.984,16.218,16.218,0,0,1-3.131,5.932,36.847,36.847,0,0,0-10.218-5.493h0Zm66.826,18.42,19.226-53.686h-11.5L743.3,660.869l-13.587-39.734H717.957l19.189,53.686h11.572Zm53.606-53.686H790.862l-20.911,53.686h11.5l4.432-12.194h21.459l4.688,12.194h11.792Zm-13.11,32.446,7.251-19.922,7.4,19.922H789.214Zm85.247,1.5v6.811a23.406,23.406,0,0,1-5.878,3.241,18.649,18.649,0,0,1-6.83,1.337,14.185,14.185,0,0,1-11.133-4.779q-4.248-4.779-4.248-14.337,0-8.862,4.193-13.367t11.3-4.5a12.9,12.9,0,0,1,7.819,2.288,11.375,11.375,0,0,1,4.266,6.244L884.715,636a18.945,18.945,0,0,0-7.233-11.591q-5.622-4.193-15.619-4.193a27.768,27.768,0,0,0-12.854,2.674,23.679,23.679,0,0,0-10.291,10,30.914,30.914,0,0,0-3.515,14.9,32.657,32.657,0,0,0,3.149,14.3,22.473,22.473,0,0,0,9.412,10.107,29.382,29.382,0,0,0,14.685,3.534,35.932,35.932,0,0,0,13.092-2.509,29.4,29.4,0,0,0,9.869-5.8V646.037H862.046v9.046h12.415Zm55.363-33.948H918.362l-20.911,53.686h11.5l4.432-12.194h21.459l4.688,12.194h11.792Zm-13.11,32.446,7.251-19.922,7.4,19.922H916.714Zm51.628,17.487q5.457,4.706,15.638,4.706a30.412,30.412,0,0,0,11.682-1.96,15.35,15.35,0,0,0,7.248-5.987,16.857,16.857,0,0,0,.42-17.194,15.016,15.016,0,0,0-5.929-5.456,52.539,52.539,0,0,0-11.7-3.864q-7.911-1.867-9.961-3.589a4.119,4.119,0,0,1-1.611-3.259,3.911,3.911,0,0,1,1.721-3.333,12.391,12.391,0,0,1,7.4-1.94q4.578,0,6.867,1.812t2.984,5.951l10.842-.476a15.634,15.634,0,0,0-5.367-11.828q-5.109-4.431-15.216-4.432a26.859,26.859,0,0,0-10.565,1.868,14.557,14.557,0,0,0-6.7,5.438,13.8,13.8,0,0,0-2.325,7.672,13.971,13.971,0,0,0,4.944,10.8q3.515,3.15,12.231,5.31,6.775,1.684,8.679,2.343a8.941,8.941,0,0,1,3.9,2.326,4.886,4.886,0,0,1,1.117,3.241,6.593,6.593,0,0,1-2.655,5.182q-2.655,2.216-7.891,2.215a11.679,11.679,0,0,1-7.856-2.49q-2.912-2.49-3.863-7.8l-10.547,1.025Q962.886,666.362,968.342,671.068Z"/>
  <path id="SPV" class="cls-2" d="M524.353,546.549a59.089,59.089,0,0,0,26.7,22.082q17.018,7.338,42.2,7.34,19.865,0,35.748-7.277t24.36-20.373a50.471,50.471,0,0,0,8.478-27.9,46.1,46.1,0,0,0-7.719-26.384q-7.721-11.451-23.917-18.918-11.136-5.059-41.063-11.832T552.129,450.06a21.1,21.1,0,0,1-7.213-16.451q0-11.512,10.187-19.677t32.458-8.162q21.384,0,32.332,8.985t12.844,26.574l23.537-1.772a56.17,56.17,0,0,0-9.111-29.231q-8.48-12.908-24.233-19.551t-36.381-6.644a88.346,88.346,0,0,0-34.04,6.327Q537.2,396.788,529.225,409a47.148,47.148,0,0,0-7.972,26.258,42.319,42.319,0,0,0,6.517,23.094q6.516,10.315,19.8,17.273,10.25,5.442,35.811,11.579t33.028,9.047q11.641,4.431,16.7,10.946a24.155,24.155,0,0,1,5.062,15.249,26.565,26.565,0,0,1-5.252,15.881q-5.253,7.278-16.008,11.452a68.224,68.224,0,0,1-24.8,4.176,70.687,70.687,0,0,1-28.472-5.5q-12.656-5.5-18.665-14.426t-7.656-22.841l-23.158,2.024A62.591,62.591,0,0,0,524.353,546.549Zm195.573,26.258v-75.42h47.58q39.354,0,54.414-16.387t15.058-40.051a56.852,56.852,0,0,0-5.631-25.309,45.52,45.52,0,0,0-14.869-17.906q-9.239-6.388-22.9-8.668-9.745-1.77-28.219-1.771H695.376V572.807h24.55Zm0-163.62h47.453q16.7,0,22.9,1.645a27.511,27.511,0,0,1,15.5,10.946q5.885,8.289,5.885,19.93,0,16.072-10,24.929T767.886,475.5h-47.96V409.187Zm226.512,163.62L1019.07,387.3H994.018L943.907,522.063q-5.694,15.186-10,30.371-3.924-14.172-9.743-30.371L875.954,387.3H849.379l71.877,185.512h25.182Z"/>
  <circle id="CIRCLE" class="cls-3" cx="767.5" cy="531.5" r="416.5"/>
</svg>
