<svg 
 xmlns="http://www.w3.org/2000/svg"
 xmlns:xlink="http://www.w3.org/1999/xlink"
 width="478px" height="61px">
<path fill-rule="evenodd"  fill="rgb(34, 34, 34)"
 d="M462.114,11.004 C460.588,9.796 458.299,9.192 455.247,9.192 C452.098,9.192 449.632,9.839 447.850,11.132 C446.702,11.963 446.129,13.073 446.129,14.465 C446.129,15.735 446.665,16.821 447.740,17.724 C449.107,18.872 452.427,20.068 457.701,21.313 C462.974,22.558 466.874,23.846 469.401,25.177 C471.928,26.508 473.906,28.326 475.334,30.633 C476.762,32.940 477.476,35.791 477.476,39.184 C477.476,42.260 476.621,45.141 474.913,47.827 C473.204,50.513 470.787,52.509 467.662,53.814 C464.536,55.120 460.643,55.774 455.980,55.774 C449.192,55.774 443.980,54.205 440.342,51.068 C436.704,47.931 434.532,43.359 433.824,37.353 L444.371,36.328 C445.005,39.868 446.293,42.468 448.234,44.128 C450.175,45.789 452.794,46.618 456.090,46.618 C459.581,46.618 462.211,45.880 463.981,44.403 C465.751,42.926 466.636,41.198 466.636,39.221 C466.636,37.952 466.264,36.871 465.519,35.980 C464.774,35.089 463.474,34.314 461.619,33.654 C460.350,33.215 457.457,32.434 452.940,31.311 C447.129,29.870 443.052,28.101 440.709,26.001 C437.413,23.047 435.765,19.445 435.765,15.197 C435.765,12.463 436.540,9.906 438.090,7.525 C439.640,5.145 441.874,3.332 444.792,2.087 C447.709,0.842 451.231,0.219 455.357,0.219 C462.095,0.219 467.167,1.697 470.573,4.651 C473.979,7.605 475.767,11.548 475.938,16.479 L465.098,16.955 C464.634,14.197 463.639,12.213 462.114,11.004 ZM406.841,42.627 L385.382,42.627 L380.950,54.821 L369.451,54.821 L390.362,1.135 L401.824,1.135 L423.321,54.821 L411.529,54.821 L406.841,42.627 ZM395.965,13.659 L388.714,33.581 L403.362,33.581 L395.965,13.659 ZM334.449,55.737 C328.833,55.737 323.939,54.559 319.764,52.203 C315.589,49.847 312.452,46.478 310.352,42.096 C308.252,37.714 307.203,32.947 307.203,27.795 C307.203,22.205 308.375,17.236 310.718,12.890 C313.062,8.545 316.492,5.212 321.009,2.893 C324.451,1.111 328.736,0.219 333.863,0.219 C340.528,0.219 345.734,1.617 349.482,4.412 C353.229,7.208 355.640,11.072 356.715,16.003 L345.948,18.017 C345.191,15.381 343.769,13.299 341.682,11.773 C339.594,10.248 336.988,9.485 333.863,9.485 C329.126,9.485 325.361,10.986 322.565,13.989 C319.770,16.992 318.372,21.448 318.372,27.356 C318.372,33.728 319.788,38.507 322.620,41.693 C325.452,44.879 329.163,46.472 333.753,46.472 C336.024,46.472 338.300,46.027 340.583,45.135 C342.865,44.244 344.825,43.164 346.461,41.894 L346.461,35.083 L334.046,35.083 L334.046,26.037 L357.410,26.037 L357.410,47.424 C355.140,49.621 351.850,51.556 347.541,53.228 C343.232,54.900 338.867,55.737 334.449,55.737 ZM279.341,42.627 L257.882,42.627 L253.450,54.821 L241.951,54.821 L262.862,1.135 L274.324,1.135 L295.821,54.821 L284.029,54.821 L279.341,42.627 ZM268.465,13.659 L261.214,33.581 L275.862,33.581 L268.465,13.659 ZM209.146,54.821 L189.957,1.135 L201.712,1.135 L215.299,40.869 L228.445,1.135 L239.944,1.135 L220.718,54.821 L209.146,54.821 ZM177.513,60.205 C175.877,59.716 174.278,59.045 172.715,58.191 C172.373,58.019 169.969,56.433 165.501,53.430 C161.986,54.968 158.091,55.737 153.819,55.737 C145.567,55.737 139.103,53.308 134.428,48.449 C129.753,43.591 127.415,36.767 127.415,27.978 C127.415,19.214 129.759,12.396 134.446,7.525 C139.134,2.655 145.493,0.219 153.526,0.219 C161.485,0.219 167.796,2.655 172.459,7.525 C177.122,12.396 179.454,19.214 179.454,27.978 C179.454,32.617 178.807,36.694 177.513,40.210 C176.536,42.896 174.973,45.496 172.825,48.010 C175.486,49.914 178.379,51.428 181.505,52.551 L177.513,60.205 ZM164.183,14.080 C161.448,11.017 157.871,9.485 153.453,9.485 C149.034,9.485 145.451,11.023 142.705,14.099 C139.958,17.175 138.585,21.802 138.585,27.978 C138.585,34.253 139.958,38.946 142.705,42.059 C145.451,45.172 148.924,46.728 153.123,46.728 C154.685,46.728 156.163,46.472 157.554,45.959 C155.357,44.519 153.123,43.396 150.853,42.590 L153.892,36.401 C157.457,37.622 160.862,39.453 164.110,41.894 C165.501,40.259 166.545,38.281 167.241,35.962 C167.936,33.642 168.284,30.981 168.284,27.978 C168.284,21.777 166.917,17.145 164.183,14.080 ZM109.698,44.348 L116.253,54.821 L103.289,54.821 L95.452,43.139 C92.669,38.964 90.765,36.334 89.739,35.247 C88.714,34.161 87.627,33.416 86.480,33.014 C85.332,32.611 83.514,32.409 81.024,32.409 L78.826,32.409 L78.826,54.821 L67.986,54.821 L67.986,1.135 L90.801,1.135 C96.538,1.135 100.707,1.617 103.308,2.581 C105.908,3.546 107.989,5.261 109.551,7.727 C111.114,10.193 111.895,13.013 111.895,16.186 C111.895,20.214 110.711,23.541 108.343,26.165 C105.975,28.790 102.434,30.444 97.723,31.128 C100.067,32.495 102.001,33.997 103.527,35.632 C105.053,37.268 107.110,40.173 109.698,44.348 ZM99.627,20.910 C100.360,19.836 100.726,18.493 100.726,16.882 C100.726,15.076 100.243,13.617 99.279,12.506 C98.314,11.395 96.954,10.693 95.196,10.400 C94.317,10.278 91.680,10.217 87.286,10.217 L78.826,10.217 L78.826,23.840 L86.846,23.840 C92.047,23.840 95.293,23.620 96.588,23.181 C97.881,22.741 98.895,21.985 99.627,20.910 ZM38.221,42.627 L16.761,42.627 L12.330,54.821 L0.831,54.821 L21.741,1.135 L33.204,1.135 L54.700,54.821 L42.908,54.821 L38.221,42.627 ZM27.344,13.659 L20.093,33.581 L34.742,33.581 L27.344,13.659 Z"/>
</svg>